<svg width="18" height="18" viewBox="0 0 18 18" fill="none" xmlns="http://www.w3.org/2000/svg">
<path d="M9.47266 5.34766V9.21484L12.6523 11.1484L12.0078 12.2656L8.09766 9.90234V5.34766H9.47266ZM17.25 7.28125H11.0195L13.5547 4.70312C12.2943 3.44271 10.776 2.8125 9 2.8125C7.2526 2.78385 5.7487 3.38542 4.48828 4.61719C3.97266 5.13281 3.52865 5.83464 3.15625 6.72266C2.78385 7.58203 2.59766 8.36979 2.59766 9.08594C2.59766 9.80208 2.78385 10.6042 3.15625 11.4922C3.52865 12.3516 3.97266 13.0391 4.48828 13.5547C5.00391 14.0703 5.70573 14.5143 6.59375 14.8867C7.48177 15.2591 8.28385 15.4453 9 15.4453C9.71615 15.4453 10.5182 15.2591 11.4062 14.8867C12.3229 14.5143 13.0391 14.0703 13.5547 13.5547C14.7865 12.3229 15.4023 10.8333 15.4023 9.08594H17.25C17.25 11.349 16.4479 13.2682 14.8438 14.8438C13.2396 16.4479 11.2917 17.25 9 17.25C6.70833 17.25 4.76042 16.4479 3.15625 14.8438C1.55208 13.2682 0.75 11.3633 0.75 9.12891C0.75 6.86589 1.55208 4.93229 3.15625 3.32812C3.8151 2.66927 4.70312 2.11068 5.82031 1.65234C6.96615 1.16536 8.01172 0.921875 8.95703 0.921875C9.90234 0.921875 10.9336 1.16536 12.0508 1.65234C13.1966 2.11068 14.099 2.66927 14.7578 3.32812L17.25 0.75V7.28125Z" fill="#9A9EA7"/>
</svg>
