<svg width="16" height="16" viewBox="0 0 16 16" fill="none" xmlns="http://www.w3.org/2000/svg">
<path d="M11.7617 10.707L9.05469 8L11.7617 5.29297L10.707 4.23828L8 6.94531L5.29297 4.23828L4.23828 5.29297L6.94531 8L4.23828 10.707L5.29297 11.7617L8 9.05469L10.707 11.7617L11.7617 10.707ZM2.69141 2.72656C4.16797 1.25 5.9375 0.511719 8 0.511719C10.0625 0.511719 11.8203 1.25 13.2734 2.72656C14.75 4.17969 15.4883 5.9375 15.4883 8C15.4883 10.0625 14.75 11.832 13.2734 13.3086C11.8203 14.7617 10.0625 15.4883 8 15.4883C5.9375 15.4883 4.16797 14.7617 2.69141 13.3086C1.23828 11.832 0.511719 10.0625 0.511719 8C0.511719 5.9375 1.23828 4.17969 2.69141 2.72656Z" fill="#203756"/>
</svg>
