<svg width="181" height="125" viewBox="0 0 181 125" fill="none" xmlns="http://www.w3.org/2000/svg">
<path d="M174.613 124C185.347 97.1844 182.1 67.2418 168.256 44.2452L23.3348 64.2955L162.215 35.3746C103.683 -37.5584 -10.2415 10.8172 0.740232 102.9L174.613 124Z" fill="#EF8354"/>
<path d="M174.613 124C185.347 97.1844 182.1 67.2418 168.256 44.2452L23.3348 64.2955L162.215 35.3746C103.683 -37.5584 -10.2415 10.8172 0.740232 102.9L174.613 124Z" fill="white" fill-opacity="0.85"/>
<circle cx="89.5405" cy="88.5" r="36.5" fill="#EF8354"/>
<path fill-rule="evenodd" clip-rule="evenodd" d="M74.1011 108H103.98C105.118 107.999 106.039 107.083 106.041 105.953V88.0465C106.039 86.9168 105.117 86.0012 103.98 86H74.1011C72.9636 86.0012 72.0417 86.9168 72.0405 88.0465V105.953C72.0417 107.083 72.9636 107.999 74.1011 108ZM74.1011 105.953V88.0465L103.98 88.0465L103.981 105.953H74.1011Z" fill="white"/>
<path fill-rule="evenodd" clip-rule="evenodd" d="M80.0405 88H99.0405L99.0405 79.5556C99.0405 73.4392 95.0451 69 89.5405 69C84.036 69 80.0405 73.4392 80.0405 79.5556V88ZM96.9294 85.8889H82.1517L82.1517 79.5556C82.1517 74.5837 85.19 71.1111 89.5406 71.1111C93.8911 71.1111 96.9294 74.5836 96.9294 79.5556V85.8889Z" fill="white"/>
<circle cx="89.0405" cy="97" r="2" fill="white"/>
</svg>
