<svg width="18" height="22" viewBox="0 0 18 22" fill="none" xmlns="http://www.w3.org/2000/svg">
<path d="M3.15625 3.35156C4.76042 1.71875 6.70833 0.902344 9 0.902344C11.2917 0.902344 13.2396 1.71875 14.8438 3.35156C16.4479 4.95573 17.25 6.88932 17.25 9.15234V18.3477C17.25 19.0924 16.9779 19.737 16.4336 20.2812C15.8893 20.8255 15.2448 21.0977 14.5 21.0977H9V19.25H15.4023V18.3477H11.75V11H15.4023V9.15234C15.4023 7.3763 14.7721 5.8724 13.5117 4.64062C12.2799 3.38021 10.776 2.75 9 2.75C7.22396 2.75 5.70573 3.38021 4.44531 4.64062C3.21354 5.8724 2.59766 7.3763 2.59766 9.15234V11H6.25V18.3477H3.5C2.75521 18.3477 2.11068 18.0755 1.56641 17.5312C1.02214 16.987 0.75 16.3424 0.75 15.5977V9.15234C0.75 6.88932 1.55208 4.95573 3.15625 3.35156Z" fill="#9A9EA7"/>
</svg>
