<svg width="32" height="32" viewBox="0 0 32 32" fill="none" xmlns="http://www.w3.org/2000/svg">
<rect width="32" height="32" rx="10" fill="#F5F6F7"/>
<path d="M12.0273 18.3555C13.4102 17.793 14.7344 17.5117 16 17.5117C17.2656 17.5117 18.5781 17.793 19.9375 18.3555C21.3203 18.8945 22.0117 19.6094 22.0117 20.5V22.0117H9.98828V20.5C9.98828 19.6094 10.668 18.8945 12.0273 18.3555ZM18.1094 15.1211C17.5234 15.707 16.8203 16 16 16C15.1797 16 14.4766 15.707 13.8906 15.1211C13.3047 14.5352 13.0117 13.832 13.0117 13.0117C13.0117 12.1914 13.3047 11.4883 13.8906 10.9023C14.4766 10.293 15.1797 9.98828 16 9.98828C16.8203 9.98828 17.5234 10.293 18.1094 10.9023C18.6953 11.4883 18.9883 12.1914 18.9883 13.0117C18.9883 13.832 18.6953 14.5352 18.1094 15.1211Z" fill="#9A9EA7"/>
</svg>
