<svg width="82" height="40" viewBox="0 0 82 40" fill="none" xmlns="http://www.w3.org/2000/svg">
<g clip-path="url(#clip0)">
<rect x="0.5" y="0.5" width="81" height="39" rx="5.5" fill="white" stroke="#E4E6E8"/>
<path d="M27.3714 14.8182H25.5369V21.7585H25.4474L20.6548 14.8182H19.0043V25H20.8487V18.0646H20.9332L25.7308 25H27.3714V14.8182ZM32.5824 25.1491C34.3622 25.1491 35.5852 24.2791 35.9034 22.9517L34.223 22.7628C33.9794 23.4091 33.3828 23.7472 32.6072 23.7472C31.4439 23.7472 30.6733 22.9815 30.6583 21.674H35.9779V21.1222C35.9779 18.4425 34.3672 17.2642 32.4879 17.2642C30.3004 17.2642 28.8735 18.87 28.8735 21.2266C28.8735 23.6229 30.2805 25.1491 32.5824 25.1491ZM30.6633 20.4609C30.718 19.4865 31.4389 18.6662 32.5127 18.6662C33.5468 18.6662 34.2429 19.4219 34.2528 20.4609H30.6633ZM38.7217 17.3636H36.8126L39.0797 21.1818L36.7529 25H38.662L40.2629 22.2507L41.8787 25H43.7728L41.4312 21.1818L43.7331 17.3636H41.8289L40.2629 20.1825L38.7217 17.3636ZM48.8383 17.3636H47.3319V15.5341H45.5322V17.3636H44.4484V18.7557H45.5322V23.0014C45.5223 24.4382 46.5663 25.1442 47.9186 25.1044C48.4306 25.0895 48.7836 24.9901 48.9775 24.9254L48.6743 23.5185C48.5748 23.5433 48.371 23.5881 48.1473 23.5881C47.6949 23.5881 47.3319 23.429 47.3319 22.7031V18.7557H48.8383V17.3636Z" fill="#9A9EA7"/>
<path d="M61.4883 15.5L65.9883 20L61.4883 24.5L60.4336 23.4453L63.8789 20L60.4336 16.5547L61.4883 15.5Z" fill="#9A9EA7"/>
</g>
<defs>
<clipPath id="clip0">
<rect width="82" height="40" fill="white"/>
</clipPath>
</defs>
</svg>
