<svg width="17" height="18" viewBox="0 0 17 18" fill="none" xmlns="http://www.w3.org/2000/svg">
<path d="M3.77344 13.7266C5.10156 15.0286 6.67708 15.6797 8.5 15.6797C10.3229 15.6797 11.8854 15.0286 13.1875 13.7266C14.5156 12.3984 15.1797 10.8229 15.1797 9C15.1797 7.17708 14.5156 5.61458 13.1875 4.3125C11.8854 2.98438 10.3229 2.32031 8.5 2.32031C6.67708 2.32031 5.10156 2.98438 3.77344 4.3125C2.47135 5.61458 1.82031 7.17708 1.82031 9C1.82031 10.8229 2.47135 12.3984 3.77344 13.7266ZM2.60156 3.14062C4.24219 1.5 6.20833 0.679688 8.5 0.679688C10.7917 0.679688 12.7448 1.5 14.3594 3.14062C16 4.75521 16.8203 6.70833 16.8203 9C16.8203 11.2917 16 13.2578 14.3594 14.8984C12.7448 16.513 10.7917 17.3203 8.5 17.3203C6.20833 17.3203 4.24219 16.513 2.60156 14.8984C0.986979 13.2578 0.179688 11.2917 0.179688 9C0.179688 6.70833 0.986979 4.75521 2.60156 3.14062ZM9.32031 4.82031V8.17969H12.6797V9.82031H9.32031V13.1797H7.67969V9.82031H4.32031V8.17969H7.67969V4.82031H9.32031Z" fill="#78C2B4"/>
</svg>
