<svg width="42" height="42" viewBox="0 0 42 42" fill="none" xmlns="http://www.w3.org/2000/svg">
<rect width="42" height="42" rx="10" fill="#78C2B4"/>
<path d="M16.7461 25.2539C17.9414 26.4258 19.3594 27.0117 21 27.0117C22.6406 27.0117 24.0469 26.4258 25.2188 25.2539C26.4141 24.0586 27.0117 22.6406 27.0117 21C27.0117 19.3594 26.4141 17.9531 25.2188 16.7812C24.0469 15.5859 22.6406 14.9883 21 14.9883C19.3594 14.9883 17.9414 15.5859 16.7461 16.7812C15.5742 17.9531 14.9883 19.3594 14.9883 21C14.9883 22.6406 15.5742 24.0586 16.7461 25.2539ZM15.6914 15.7266C17.168 14.25 18.9375 13.5117 21 13.5117C23.0625 13.5117 24.8203 14.25 26.2734 15.7266C27.75 17.1797 28.4883 18.9375 28.4883 21C28.4883 23.0625 27.75 24.832 26.2734 26.3086C24.8203 27.7617 23.0625 28.4883 21 28.4883C18.9375 28.4883 17.168 27.7617 15.6914 26.3086C14.2383 24.832 13.5117 23.0625 13.5117 21C13.5117 18.9375 14.2383 17.1797 15.6914 15.7266ZM19.4883 24.375V17.625L23.9883 21L19.4883 24.375Z" fill="white"/>
</svg>
